<svg width="15" height="15" viewBox="0 0 15 15" fill="none" xmlns="http://www.w3.org/2000/svg">
<path fill-rule="evenodd" clip-rule="evenodd" d="M6.80519 0.0163464C5.04782 0.178185 3.44034 0.895338 2.19248 2.07424C1.02652 3.17578 0.315185 4.52566 0.0545305 6.13131C-0.0181768 6.57913 -0.0181768 7.62933 0.0545305 8.07715C0.315009 9.68175 1.02042 11.0216 2.18858 12.1305C3.35175 13.2347 4.77716 13.9084 6.47265 14.1552C6.94552 14.2241 8.05448 14.2241 8.52735 14.1552C10.2217 13.9085 11.6365 13.2405 12.8075 12.1342C13.9735 11.0327 14.6848 9.68281 14.9455 8.07715C15.0182 7.62933 15.0182 6.57913 14.9455 6.13131C14.685 4.52672 13.9796 3.18687 12.8114 2.07794C11.6561 0.981232 10.2138 0.296603 8.55671 0.0583209C8.18994 0.00558867 7.18393 -0.0185119 6.80519 0.0163464ZM8.45397 1.16839C9.80896 1.36887 11.0035 1.94442 11.976 2.86539C12.9561 3.79355 13.5565 4.91714 13.7733 6.22861C13.8089 6.4444 13.8238 6.70206 13.8238 7.10423C13.8238 7.50641 13.8089 7.76407 13.7733 7.97986C13.5565 9.29133 12.9561 10.4149 11.976 11.3431C10.9959 12.2712 9.80946 12.8399 8.42462 13.0451C7.97995 13.111 7.02005 13.111 6.57538 13.0451C5.19054 12.8399 4.00409 12.2712 3.02399 11.3431C2.0439 10.4149 1.44345 9.29133 1.22674 7.97986C1.15715 7.55875 1.15715 6.64971 1.22674 6.22861C1.44345 4.91714 2.0439 3.79355 3.02399 2.86539C4.10506 1.84157 5.38688 1.27597 6.98632 1.11702C7.22511 1.09329 8.16975 1.12636 8.45397 1.16839ZM10.1711 4.72981C10.1056 4.75644 9.41657 5.38834 8.27098 6.47228L6.47359 8.17294L5.71728 7.46141C5.30132 7.07004 4.92087 6.7306 4.87188 6.70706C4.57016 6.56201 4.2302 6.66625 4.07988 6.94984C3.99173 7.11616 3.98683 7.2696 4.06479 7.4221C4.10219 7.49526 4.4829 7.87487 5.14351 8.49765C5.94861 9.25664 6.18857 9.46745 6.27856 9.49481C6.428 9.5402 6.65481 9.51354 6.77454 9.43649C6.91588 9.34556 10.7771 5.69236 10.885 5.54756C10.9671 5.43737 10.9782 5.40043 10.9782 5.23723C10.9783 5.07617 10.9668 5.03653 10.8903 4.93359C10.7268 4.71377 10.4225 4.62754 10.1711 4.72981Z" fill="#C995F9"/>
</svg>
